<svg id="Layer_1" enable-background="new 0 0 511.869 511.869" height="512" viewBox="0 0 511.869 511.869" width="512" xmlns="http://www.w3.org/2000/svg"><g><path d="m381.739 338.617c.084-2.024.126-4.048.126-6.063 0-16.154-2.647-31.655-7.491-46.033 65.004-69.179 63.525-140.914 50.369-189.594-14.483-53.587-45.455-90.156-46.766-91.686-2.717-3.171-6.632-5.065-10.804-5.229-4.184-.165-8.224 1.419-11.18 4.369-37.157 37.064-58.859 88.376-62.758 148.391-1.273 19.588-.475 37.075.854 50.672-12.05-4.132-24.879-6.371-38.186-6.371-13.283 0-26.089 2.23-38.12 6.348 1.328-13.593 2.124-31.072.852-50.649-3.899-60.014-25.601-111.327-62.758-148.391-2.956-2.949-7.002-4.54-11.18-4.369-4.172.163-8.087 2.058-10.804 5.229-1.312 1.53-32.284 38.099-46.766 91.686-13.154 48.667-14.633 120.38 50.322 189.543-4.855 14.392-7.508 29.91-7.508 46.083 0 1.49.023 2.988.07 4.491-28.6 15.051-47.146 45.104-47.146 77.984 0 48.554 39.501 88.055 88.054 88.055 11.242 0 22.411-2.168 32.788-6.323 14.493 9.797 31.668 15.109 49.294 15.109.019 0 .038-.001.057-.001.007 0 .013.001.02.001h.049c.026 0 .052-.004.078-.004 18.055-.042 35.53-5.607 50.189-15.851 10.883 4.646 22.654 7.069 34.554 7.069 48.553 0 88.054-39.501 88.054-88.055.002-31.936-17.054-60.859-44.263-76.411zm-58.509-184.786c3.149-46.098 17.302-84.746 42.126-115.153 9.379 14.096 22.975 37.928 30.685 67.05 14.659 55.368 2.672 106.189-35.589 151.342-1.933-3.087-3.985-6.08-6.141-8.981 7.501-13.347 19.578-39.411 22.796-73.335.782-8.248-5.27-15.567-13.517-16.35-8.25-.78-15.567 5.27-16.35 13.517-2.139 22.55-9.035 41.052-14.79 53.118-1.874-1.547-3.786-3.042-5.741-4.476-1.911-10.56-5.58-35.97-3.479-66.732zm-207.402-48.104c7.71-29.125 21.309-52.959 30.685-67.05 24.825 30.408 38.978 69.056 42.127 115.154 2.097 30.708-1.555 56.084-3.471 66.678-1.964 1.439-3.885 2.94-5.768 4.492-5.752-12.067-12.636-30.553-14.772-53.08-.782-8.248-8.105-14.294-16.349-13.517-8.248.782-14.299 8.102-13.517 16.349 3.213 33.881 15.265 59.924 22.768 73.287-2.159 2.902-4.215 5.896-6.151 8.985-38.232-45.141-50.206-95.947-35.552-151.298zm222.122 367.356c-10.138 0-20.13-2.667-28.897-7.713-5.602-3.223-12.636-2.499-17.46 1.8-6.777 6.037-14.799 10.338-23.409 12.672l.147-45.512h10.358c8.284 0 15-6.716 15-15s-6.716-15-15-15h-50.87c-8.284 0-15 6.716-15 15s6.716 15 15 15h10.512l-.147 45.603c-8.364-2.214-16.197-6.28-22.865-11.98-2.779-2.375-6.25-3.598-9.75-3.598-2.435 0-4.885.592-7.123 1.801-8.397 4.533-17.915 6.929-27.525 6.929-32.011 0-58.054-26.043-58.054-58.055 0-24.229 15.27-46.129 37.998-54.497 6.447-2.374 10.457-8.823 9.734-15.655-.436-4.115-.656-8.262-.656-12.323 0-58.162 43.048-105.48 95.961-105.48 52.914 0 95.962 47.318 95.962 105.48 0 4.429-.255 8.906-.759 13.308-.76 6.641 2.966 12.983 9.137 15.553 21.724 9.046 35.762 30.091 35.762 53.615-.002 32.009-26.045 58.052-58.056 58.052z"/><circle cx="301.955" cy="333.774" r="14.984"/><circle cx="208.042" cy="333.774" r="14.984"/></g></svg>